<svg width="103" height="104" viewBox="0 0 103 104" fill="none" xmlns="http://www.w3.org/2000/svg">
<path d="M51.5206 28.8653C38.726 28.8653 28.4059 39.1854 28.4059 51.9799C28.4059 64.7745 38.726 75.0946 51.5206 75.0946C64.3151 75.0946 74.6352 64.7745 74.6352 51.9799C74.6352 39.1854 64.3151 28.8653 51.5206 28.8653ZM51.5206 67.0075C43.2524 67.0075 36.493 60.2682 36.493 51.9799C36.493 43.6917 43.2323 36.9524 51.5206 36.9524C59.8088 36.9524 66.5481 43.6917 66.5481 51.9799C66.5481 60.2682 59.7887 67.0075 51.5206 67.0075ZM80.9721 27.9198C80.9721 30.9172 78.5581 33.3112 75.5807 33.3112C72.5833 33.3112 70.1893 30.8971 70.1893 27.9198C70.1893 24.9424 72.6034 22.5284 75.5807 22.5284C78.5581 22.5284 80.9721 24.9424 80.9721 27.9198ZM96.2813 33.3917C95.9393 26.1696 94.2897 19.7723 88.9989 14.5016C83.7282 9.23091 77.3309 7.5813 70.1088 7.21919C62.6655 6.79673 40.3555 6.79673 32.9122 7.21919C25.7102 7.56118 19.3129 9.21079 14.0221 14.4815C8.7313 19.7522 7.10181 26.1495 6.7397 33.3715C6.31724 40.8149 6.31724 63.1248 6.7397 70.5682C7.08169 77.7903 8.7313 84.1875 14.0221 89.4583C19.3129 94.729 25.6901 96.3786 32.9122 96.7407C40.3555 97.1631 62.6655 97.1631 70.1088 96.7407C77.3309 96.3987 83.7282 94.7491 88.9989 89.4583C94.2696 84.1875 95.9192 77.7903 96.2813 70.5682C96.7038 63.1248 96.7038 40.835 96.2813 33.3917ZM86.6653 78.5547C85.0961 82.4977 82.0584 85.5354 78.0954 87.1247C72.1608 89.4784 58.0788 88.9352 51.5206 88.9352C44.9624 88.9352 30.8602 89.4583 24.9458 87.1247C21.0028 85.5555 17.9651 82.5178 16.3758 78.5547C14.0221 72.6202 14.5653 58.5381 14.5653 51.9799C14.5653 45.4217 14.0422 31.3196 16.3758 25.4051C17.945 21.4622 20.9827 18.4245 24.9458 16.8352C30.8803 14.4815 44.9624 15.0247 51.5206 15.0247C58.0788 15.0247 72.1809 14.5016 78.0954 16.8352C82.0383 18.4043 85.076 21.442 86.6653 25.4051C89.019 31.3397 88.4758 45.4217 88.4758 51.9799C88.4758 58.5381 89.019 72.6403 86.6653 78.5547Z" fill="#29123B"/>
</svg>
