<svg width="795" height="206" viewBox="0 0 795 206" fill="none" xmlns="http://www.w3.org/2000/svg">
<rect width="795" height="205.668" rx="41" fill="white"/>
<g filter="url(#filter0_d_1_400)">
<mask id="mask0_1_400" style="mask-type:alpha" maskUnits="userSpaceOnUse" x="33" y="34" width="729" height="130">
<path d="M70.9746 163.114C67.3243 163.114 64.0862 162.17 61.2601 160.281C58.5519 158.391 57.2566 155.558 57.3744 151.779C57.6099 145.167 58.0809 137.847 58.7874 129.817C59.6116 121.788 60.5536 113.641 61.6134 105.376C62.6731 96.9927 63.7329 88.9637 64.7927 81.2888C65.9702 73.614 67.0299 66.7657 67.9719 60.7439C65.8524 60.5077 63.7918 60.3306 61.79 60.2125C59.7883 60.0945 57.9631 60.0354 56.3146 60.0354C51.3691 60.0354 46.8946 60.5077 42.891 61.4523C39.0053 62.3969 35.7083 64.05 33 66.4114C33 58.9728 33.5888 52.951 34.7663 48.346C36.0615 43.6231 38.3577 40.1989 41.6547 38.0736C45.0694 35.9482 50.015 34.8856 56.4912 34.8856C61.2013 34.8856 66.4412 35.2988 72.2109 36.1253C78.0985 36.8338 84.0449 37.6013 90.0502 38.4278C96.0554 39.2543 101.649 39.6676 106.83 39.6676C111.069 39.6676 114.837 39.2543 118.134 38.4278C121.548 37.6013 124.139 36.1253 125.905 34C128.496 34.8265 130.497 36.6567 131.91 39.4905C133.323 42.2062 134.03 45.2171 134.03 48.5232C134.03 51.475 133.382 54.3679 132.087 57.2016C130.792 59.9174 128.731 62.2198 125.905 64.109C123.079 65.8801 119.252 66.7657 114.425 66.7657C112.187 66.7657 109.42 66.5885 106.123 66.2343C102.944 65.762 99.5291 65.2897 95.8788 64.8175C94.5836 71.9019 93.2294 80.4033 91.8164 90.3215C90.5212 100.122 89.4025 110.689 88.4605 122.025C87.6363 133.36 87.1064 144.872 86.8709 156.561C84.7514 158.805 82.2197 160.458 79.276 161.52C76.45 162.583 73.6828 163.114 70.9746 163.114Z" fill="white"/>
<path d="M136.425 163.114C132.186 163.114 128.418 161.402 125.121 157.978C121.824 154.436 120.176 149.477 120.176 143.101C120.176 140.031 120.529 136.548 121.236 132.651C121.942 128.755 122.766 124.799 123.708 120.785C124.65 116.652 125.475 112.815 126.181 109.272C126.888 105.612 127.241 102.601 127.241 100.24C127.241 97.7602 126.77 95.812 125.828 94.3951C125.004 92.8601 123.885 92.0926 122.472 92.0926C120.235 92.0926 117.939 93.6276 115.584 96.6975L114.524 95.9891C114.406 94.0999 114.818 91.8565 115.76 89.2589C116.702 86.6612 118.174 84.1817 120.176 81.8202C122.178 79.3406 124.709 77.2743 127.771 75.6213C130.95 73.9682 134.659 73.1417 138.898 73.1417C145.139 73.1417 149.672 74.9718 152.498 78.6321C155.324 82.1744 156.737 86.4841 156.737 91.5613C156.737 92.3878 156.679 93.2734 156.561 94.218C156.561 95.0445 156.502 95.871 156.384 96.6975C160.623 89.0227 165.039 83.178 169.631 79.1635C174.341 75.0309 178.698 72.9646 182.701 72.9646C186.469 72.9646 189.237 74.4405 191.003 77.3924C192.769 80.3442 193.652 83.8865 193.652 88.0191C193.652 91.7975 192.887 95.6349 191.356 99.5313C189.943 103.428 187.765 106.675 184.821 109.272C181.995 111.752 178.521 112.933 174.4 112.815L173.694 112.46C173.576 109.391 172.575 106.97 170.691 105.199C168.807 103.428 166.687 102.542 164.332 102.542C161.153 102.542 158.15 104.136 155.324 107.324C152.616 110.512 151.262 115.117 151.262 121.139C151.262 124.799 151.674 128.755 152.498 133.005C153.323 137.256 153.735 140.857 153.735 143.809C153.735 147.351 152.911 150.599 151.262 153.55C149.614 156.502 147.494 158.864 144.904 160.635C142.313 162.288 139.487 163.114 136.425 163.114Z" fill="white"/>
<path d="M222.39 163.114C217.091 163.114 212.617 160.93 208.966 156.561C205.434 152.193 203.667 146.348 203.667 139.027C203.667 135.013 204.138 130.703 205.08 126.098C206.022 121.493 206.965 117.124 207.907 112.992C208.731 109.922 209.378 107.088 209.849 104.49C210.438 101.775 210.733 99.5904 210.733 97.9373C210.733 95.812 210.262 94.277 209.32 93.3324C208.495 92.3878 207.494 91.9155 206.317 91.9155C205.139 91.9155 203.962 92.3288 202.784 93.1553C201.607 93.8638 200.665 94.9855 199.958 96.5204L198.545 95.9891C198.545 91.148 199.723 87.0154 202.078 83.5913C204.433 80.1671 207.436 77.5695 211.086 75.7984C214.736 74.0273 218.445 73.1417 222.213 73.1417C225.275 73.1417 228.218 73.7911 231.044 75.0899C233.871 76.2707 236.167 78.1599 237.933 80.7575C239.817 83.3551 240.759 86.6022 240.759 90.4986C240.759 92.8601 240.406 95.6939 239.699 99C239.11 102.306 238.404 105.73 237.58 109.272C236.755 112.933 235.931 116.652 235.107 120.431C234.4 124.091 234.047 127.338 234.047 130.172C234.047 132.769 234.459 134.895 235.284 136.548C236.108 138.201 237.344 139.027 238.993 139.027C242.054 139.027 245.469 136.193 249.237 130.526C253.123 124.858 256.243 117.243 258.598 107.678C259.069 105.789 259.481 103.782 259.835 101.657C260.188 99.5313 260.364 97.347 260.364 95.1035C260.364 93.3324 260.247 91.5613 260.011 89.7902C259.776 87.901 259.422 86.0118 258.951 84.1226V82.8828C260.835 79.6948 263.249 77.2743 266.193 75.6213C269.255 73.9682 272.316 73.1417 275.378 73.1417C279.499 73.1417 283.208 74.5586 286.505 77.3924C289.802 80.2262 291.451 84.3588 291.451 89.7902C291.451 92.9782 290.862 96.6975 289.684 100.948C288.507 105.081 287.212 109.391 285.799 113.877C284.385 118.246 283.09 122.556 281.913 126.807C280.735 131.057 280.146 134.836 280.146 138.142C280.146 142.983 281.854 145.403 285.269 145.403C286.211 145.403 287.329 145.167 288.625 144.695C290.038 144.104 291.333 142.983 292.51 141.33L293.747 141.684C293.747 145.935 292.569 149.713 290.214 153.019C287.977 156.207 285.092 158.687 281.56 160.458C278.027 162.229 274.377 163.114 270.609 163.114C265.781 163.114 261.424 161.343 257.538 157.801C253.77 154.259 251.886 148.473 251.886 140.444V140.09C247.059 148.355 242.054 154.259 236.873 157.801C231.692 161.343 226.864 163.114 222.39 163.114Z" fill="white"/>
<path d="M323.043 163.114C319.864 163.114 316.743 162.347 313.682 160.812C310.738 159.159 308.324 156.561 306.44 153.019C304.556 149.477 303.614 144.931 303.614 139.381C303.614 134.422 304.262 128.637 305.557 122.025C306.97 115.294 308.501 108.328 310.149 101.125C311.916 93.9228 313.446 86.8974 314.742 80.049C316.037 73.2007 316.626 67.1199 316.508 61.8065C316.508 56.7293 315.919 53.1281 314.742 51.0027L314.565 50.4714C315.86 46.693 318.156 43.7411 321.453 41.6158C324.751 39.4905 328.224 38.4278 331.874 38.4278C335.996 38.4278 339.646 40.0218 342.825 43.2098C346.122 46.2797 347.771 51.475 347.771 58.7956C347.771 62.6921 347.3 67.356 346.358 72.7875C345.416 78.1008 344.297 83.8274 343.002 89.9673C341.707 95.9891 340.352 101.952 338.939 107.856C337.644 113.759 336.526 119.191 335.584 124.15C334.642 129.109 334.171 133.183 334.171 136.371C334.171 139.677 334.642 141.979 335.584 143.278C336.526 144.459 337.585 145.049 338.763 145.049C340.058 145.049 341.294 144.577 342.472 143.632C343.649 142.569 344.415 141.625 344.768 140.798L346.181 141.153C346.063 145.403 344.827 149.182 342.472 152.488C340.235 155.794 337.35 158.391 333.817 160.281C330.403 162.17 326.811 163.114 323.043 163.114Z" fill="white"/>
<path d="M420.325 163.292C416.204 163.292 412.613 161.934 409.551 159.218C406.49 156.502 404.959 152.074 404.959 145.935C404.959 145.344 404.959 144.754 404.959 144.163C404.959 143.573 405.018 142.983 405.136 142.392C401.603 149.477 397.599 154.731 393.125 158.155C388.768 161.461 384.353 163.114 379.878 163.114C375.757 163.114 371.871 161.698 368.221 158.864C364.57 155.912 361.627 151.602 359.389 145.935C357.152 140.267 356.034 133.419 356.034 125.39C356.034 117.124 357.152 109.745 359.389 103.251C361.744 96.7566 364.806 91.2661 368.574 86.7793C372.342 82.2925 376.463 78.9273 380.938 76.6839C385.412 74.3224 389.769 73.1417 394.008 73.1417C398.718 73.1417 402.957 74.6176 406.725 77.5695C410.493 80.4033 413.084 84.9491 414.497 91.2071C414.85 89.1998 415.085 87.3697 415.203 85.7166C415.439 84.0636 415.556 82.9419 415.556 82.3515C415.674 79.1635 417.264 76.802 420.325 75.267C423.505 73.7321 426.978 72.9646 430.746 72.9646C434.043 72.9646 437.164 73.614 440.107 74.9128C443.051 76.2116 445.053 78.396 446.113 81.466L446.466 82.5286C445.053 85.7166 443.64 89.554 442.227 94.0409C440.814 98.5277 439.519 103.251 438.341 108.21C437.164 113.051 436.222 117.833 435.515 122.556C434.809 127.161 434.455 131.234 434.455 134.777C434.455 138.673 434.868 141.389 435.692 142.924C436.516 144.341 437.517 145.049 438.694 145.049C440.696 145.049 442.521 143.632 444.17 140.798L445.583 141.507C445.583 145.521 444.288 149.182 441.697 152.488C439.107 155.794 435.868 158.451 431.983 160.458C428.097 162.347 424.211 163.292 420.325 163.292ZM391.535 140.798C394.597 140.798 397.953 138.083 401.603 132.651C405.371 127.102 408.609 119.191 411.317 108.918C411.553 107.856 411.788 106.852 412.024 105.907C412.259 104.845 412.436 103.841 412.554 102.896C410.67 98.5277 408.668 95.4578 406.549 93.6867C404.547 91.7975 402.545 90.8529 400.543 90.8529C397.599 90.8529 394.832 92.4469 392.242 95.6349C389.769 98.7048 387.708 102.601 386.06 107.324C384.529 112.047 383.764 116.77 383.764 121.493C383.764 127.987 384.47 132.828 385.883 136.016C387.414 139.204 389.298 140.798 391.535 140.798Z" fill="white"/>
<path d="M480.126 163.114C475.887 163.114 471.883 161.639 468.115 158.687C464.465 155.735 461.462 151.425 459.107 145.757C456.87 140.09 455.751 133.242 455.751 125.213C455.751 116.947 456.929 109.568 459.284 103.074C461.639 96.5795 464.7 91.089 468.468 86.6022C472.354 81.9973 476.534 78.5141 481.009 76.1526C485.601 73.7911 490.076 72.6104 494.432 72.6104C499.26 72.6104 503.558 74.1453 507.326 77.2152C511.094 80.1671 513.685 84.8311 515.098 91.2071C516.157 85.3034 517.04 79.6948 517.747 74.3815C518.571 68.95 518.983 64.168 518.983 60.0354C518.983 54.604 518.277 50.6485 516.864 48.1689V47.1063C519.572 44.0363 522.516 41.7929 525.695 40.376C528.992 38.8411 532.112 38.0736 535.056 38.0736C538.942 38.0736 542.239 39.3133 544.947 41.7929C547.656 44.1544 549.01 47.5786 549.01 52.0654C549.01 54.545 548.598 58.2053 547.773 63.0463C546.949 67.8874 545.948 73.4369 544.771 79.6948C543.593 85.8347 542.357 92.2107 541.062 98.8229C539.884 105.317 538.883 111.575 538.059 117.597C537.235 123.5 536.822 128.637 536.822 133.005C536.822 136.666 537.176 139.618 537.882 141.861C538.706 143.986 540.002 145.049 541.768 145.049C543.063 145.049 544.359 144.636 545.654 143.809C547.067 142.865 548.009 141.802 548.48 140.621L549.716 141.507C549.716 145.403 548.48 149.005 546.007 152.311C543.534 155.499 540.414 158.096 536.646 160.104C532.878 162.111 528.992 163.114 524.989 163.114C520.632 163.114 517.158 161.934 514.568 159.572C512.095 157.093 510.329 153.964 509.269 150.185C508.209 146.407 507.62 142.51 507.503 138.496C503.852 146.997 499.554 153.255 494.609 157.27C489.781 161.166 484.953 163.114 480.126 163.114ZM491.96 140.621C495.021 140.621 498.436 137.847 502.204 132.297C505.972 126.748 509.269 118.659 512.095 108.033L513.155 102.542C511.271 98.1735 509.21 95.1035 506.973 93.3324C504.853 91.4432 502.793 90.4986 500.791 90.4986C497.847 90.4986 495.08 92.1517 492.489 95.4578C489.899 98.6458 487.779 102.778 486.131 107.856C484.6 112.815 483.835 118.069 483.835 123.619C483.835 128.932 484.6 133.124 486.131 136.193C487.662 139.145 489.605 140.621 491.96 140.621Z" fill="white"/>
<path d="M714.841 164C707.54 164 701.476 162.996 696.648 160.989C691.821 158.982 688.229 156.443 685.874 153.373C683.519 150.185 682.342 146.997 682.342 143.809C682.342 139.322 684.343 135.367 688.347 131.943C692.351 128.401 697.767 126.629 704.597 126.629C704.597 132.651 705.362 137.492 706.893 141.153C708.424 144.695 710.366 147.233 712.721 148.768C715.194 150.303 717.549 151.071 719.786 151.071C722.495 151.071 724.732 150.303 726.498 148.768C728.382 147.115 729.324 145.108 729.324 142.747C729.324 139.441 727.617 136.548 724.202 134.068C720.787 131.589 716.372 128.814 710.955 125.744C708.247 124.091 705.303 122.202 702.124 120.076C698.945 117.833 696.236 115.176 693.999 112.106C691.762 108.918 690.643 105.14 690.643 100.771C690.643 96.1662 691.938 92.0926 694.529 88.5504C697.237 85.0082 700.77 82.0563 705.126 79.6948C709.483 77.2153 714.193 75.3851 719.257 74.2044C724.32 72.9055 729.265 72.2561 734.093 72.2561C743.16 72.2561 749.989 74.0863 754.582 77.7466C759.174 81.4069 761.47 85.3034 761.47 89.436C761.47 92.9782 759.704 96.1662 756.171 99C752.639 101.834 747.222 103.251 739.922 103.251C740.039 97.2289 738.803 92.8601 736.213 90.1444C733.622 87.3106 730.855 85.8937 727.911 85.8937C725.792 85.8937 724.026 86.5431 722.612 87.842C721.199 89.1408 720.493 91.03 720.493 93.5095C720.493 96.3433 721.376 98.8229 723.142 100.948C725.026 102.955 727.323 104.786 730.031 106.439C732.857 107.974 735.742 109.45 738.685 110.866C742.689 112.756 746.457 114.763 749.989 116.888C753.522 119.014 756.407 121.434 758.644 124.15C760.881 126.866 762 130.172 762 134.068C762 139.381 759.822 144.341 755.465 148.946C751.226 153.432 745.515 157.093 738.332 159.926C731.149 162.642 723.319 164 714.841 164Z" fill="white"/>
</mask>
<g mask="url(#mask0_1_400)">
<rect x="67.9072" y="-81.1854" width="302.836" height="259" transform="rotate(17.1247 67.9072 -81.1854)" fill="#5DB4EA"/>
<rect x="375.665" y="-53.2249" width="434.254" height="228.315" transform="rotate(17.1247 375.665 -53.2249)" fill="#FCB9B1"/>
<rect x="609.634" y="-29.5073" width="111.765" height="259" transform="rotate(17.1247 609.634 -29.5073)" fill="#833ABB"/>
</g>
<path d="M676.236 120.462L675.715 121.124L643.034 162.622C642.603 166.881 639.719 169.891 636.469 171.737C632.957 173.73 628.583 174.668 624.715 174.668C617.675 174.668 611.573 170.706 608.483 164.895C605.524 166.939 601.936 168.14 598.067 168.14C588.9 168.14 581.311 161.422 579.907 152.643C573.108 153.2 566.267 149.93 562.562 143.648L565.139 142.129L562.562 143.648C557.397 134.89 560.284 123.586 569.025 118.399L676.236 120.462ZM676.236 120.462L676.336 119.626M676.236 120.462L676.336 119.626M676.336 119.626L673.358 119.268M676.336 119.626L673.358 119.268M673.358 119.268C676.336 119.626 676.336 119.625 676.336 119.625L676.336 119.625L676.336 119.624L676.337 119.62L676.338 119.608L676.344 119.561L676.364 119.385C676.382 119.234 676.407 119.016 676.437 118.746C676.496 118.208 676.576 117.461 676.655 116.627C676.811 114.999 676.98 112.907 676.98 111.411C676.98 82.4733 653.589 59 624.715 59C595.842 59 572.45 82.473 572.45 111.41L673.358 119.268ZM572.717 116.727C572.539 114.961 572.45 113.187 572.45 111.411L572.717 116.727ZM572.717 116.727C571.431 117.145 570.193 117.705 569.026 118.399L572.717 116.727Z" fill="#833ABB" stroke="#FCB9B1" stroke-width="6"/>
<path d="M672.918 100.837L675.711 101.931L675.992 101.215L675.893 100.452C674.763 91.7279 669.071 81.4119 660.289 73.3126C651.445 65.1558 639.204 59 624.715 59C595.803 59 572.45 83.4922 572.45 111.411C572.45 113.487 572.576 115.192 572.867 116.536C573.132 117.76 573.657 119.296 574.965 120.271C576.55 121.454 578.279 121.146 579.354 120.696C580.359 120.275 581.257 119.568 581.942 118.975C582.603 118.402 583.286 117.735 583.903 117.132C583.958 117.078 584.013 117.024 584.067 116.972C584.761 116.295 585.384 115.695 585.975 115.198C586.507 114.751 586.895 114.491 587.156 114.358C588.168 114.866 588.901 115.794 589.482 117.407C590.165 119.303 590.469 121.664 590.825 124.463L590.833 124.528C591.163 127.122 591.549 130.162 592.556 132.726C593.629 135.457 595.55 138.007 599.06 139.035C600.724 139.522 602.338 139.712 603.858 139.436C605.446 139.146 606.735 138.382 607.723 137.303C609.495 135.366 610.157 132.517 610.607 130.298C610.742 129.633 610.864 128.986 610.983 128.352C611.319 126.563 611.634 124.883 612.165 123.237C612.857 121.093 613.79 119.471 615.203 118.384C616.383 117.476 617.44 116.244 618.305 115.199C618.524 114.934 618.734 114.678 618.937 114.431C619.609 113.61 620.204 112.883 620.828 112.232C621.651 111.374 622.212 110.996 622.561 110.867L622.574 110.863C622.712 110.811 622.813 110.774 623.149 110.98C624.05 111.532 624.982 112.279 626.072 113.184C626.187 113.28 626.304 113.377 626.423 113.477C627.371 114.267 628.445 115.161 629.544 115.919C632.042 117.641 635.535 119.246 639.551 117.364C642.665 115.905 645.194 113.598 647.225 111.746C647.766 111.252 648.272 110.79 648.745 110.386C651.137 108.336 653.127 107.175 655.99 107.341C657.053 107.403 657.822 107.971 659.466 109.184C659.569 109.261 659.676 109.34 659.787 109.421C661.393 110.604 664.085 112.484 667.749 111.269C669.283 110.76 670.514 109.773 671.439 108.817C672.382 107.843 673.162 106.739 673.769 105.755C674.382 104.761 674.86 103.82 675.184 103.132C675.347 102.786 675.474 102.497 675.563 102.29C675.607 102.187 675.641 102.103 675.666 102.042C675.679 102.012 675.689 101.987 675.696 101.969L675.705 101.945L675.709 101.937L675.71 101.934L675.71 101.932C675.711 101.932 675.711 101.931 672.918 100.837Z" fill="#5DB4EA" stroke="#FCB9B1" stroke-width="6"/>
<path d="M642.357 162.169L675.352 120.883C667.738 115.215 662.382 115.336 657.391 116.411C653.08 117.34 646.232 122.2 647.224 130.015C645.913 129.733 644.543 129.626 643.138 129.727C635.127 130.299 629.098 137.276 629.672 145.311C630.161 152.158 635.134 158.255 642.357 162.169Z" fill="white" stroke="#FCB9B1" stroke-width="6" stroke-linecap="round" stroke-linejoin="round"/>
<path d="M609.978 84.536L618.921 91.7809M625.486 71.8575L620.845 79.442M642.806 73.6688L648.013 78.5364M634.769 85.3284L638.618 91.7809M604.205 73.6688L611.789 74.914M655.824 89.2904L659.447 96.4221M588.923 96.4221L585.866 104.346M596.394 83.5172L599.677 92.4601M634.769 100.724L622.656 99.1389M607.035 107.063L599.677 114.081" stroke="white" stroke-width="4" stroke-linecap="round"/>
</g>
<defs>
<filter id="filter0_d_1_400" x="29" y="34" width="737" height="151.668" filterUnits="userSpaceOnUse" color-interpolation-filters="sRGB">
<feFlood flood-opacity="0" result="BackgroundImageFix"/>
<feColorMatrix in="SourceAlpha" type="matrix" values="0 0 0 0 0 0 0 0 0 0 0 0 0 0 0 0 0 0 127 0" result="hardAlpha"/>
<feOffset dy="4"/>
<feGaussianBlur stdDeviation="2"/>
<feComposite in2="hardAlpha" operator="out"/>
<feColorMatrix type="matrix" values="0 0 0 0 0 0 0 0 0 0 0 0 0 0 0 0 0 0 0.25 0"/>
<feBlend mode="normal" in2="BackgroundImageFix" result="effect1_dropShadow_1_400"/>
<feBlend mode="normal" in="SourceGraphic" in2="effect1_dropShadow_1_400" result="shape"/>
</filter>
</defs>
</svg>
