<svg width="90" height="90" viewBox="0 0 90 90" fill="none" xmlns="http://www.w3.org/2000/svg">
<path d="M72.5801 17.0684C65.2148 9.68555 55.4062 5.625 44.9824 5.625C23.4668 5.625 5.95898 23.1328 5.95898 44.6484C5.95898 51.5215 7.75195 58.2363 11.1621 64.1602L5.625 84.375L26.3145 78.9434C32.0098 82.0547 38.4258 83.6895 44.9648 83.6895H44.9824C66.4805 83.6895 84.375 66.1816 84.375 44.666C84.375 34.2422 79.9453 24.4512 72.5801 17.0684ZM44.9824 77.1152C39.1465 77.1152 33.4336 75.5508 28.459 72.5977L27.2812 71.8945L15.0117 75.1113L18.2812 63.1406L17.5078 61.9102C14.2559 56.7422 12.5508 50.7832 12.5508 44.6484C12.5508 26.7715 27.1055 12.2168 45 12.2168C53.666 12.2168 61.8047 15.5918 67.9219 21.7266C74.0391 27.8613 77.8008 36 77.7832 44.666C77.7832 62.5605 62.8594 77.1152 44.9824 77.1152ZM62.7715 52.8223C61.8047 52.3301 57.0059 49.9746 56.1094 49.6582C55.2129 49.3242 54.5625 49.166 53.9121 50.1504C53.2617 51.1348 51.3984 53.3145 50.8184 53.9824C50.2559 54.6328 49.6758 54.7207 48.709 54.2285C42.9785 51.3633 39.2168 49.1133 35.4375 42.627C34.4355 40.9043 36.4395 41.0273 38.3027 37.3008C38.6191 36.6504 38.4609 36.0879 38.2148 35.5957C37.9688 35.1035 36.0176 30.3047 35.209 28.3535C34.418 26.4551 33.6094 26.7188 33.0117 26.6836C32.4492 26.6484 31.7988 26.6484 31.1484 26.6484C30.498 26.6484 29.4434 26.8945 28.5469 27.8613C27.6504 28.8457 25.1367 31.2012 25.1367 36C25.1367 40.7988 28.6348 45.4395 29.1094 46.0898C29.6016 46.7402 35.9824 56.584 45.7734 60.8203C51.9609 63.4922 54.3867 63.7207 57.4805 63.2637C59.3613 62.9824 63.2461 60.9082 64.0547 58.623C64.8633 56.3379 64.8633 54.3867 64.6172 53.9824C64.3887 53.543 63.7383 53.2969 62.7715 52.8223Z" fill="#29123B"/>
</svg>
