<svg width="899" height="899" viewBox="0 0 899 899" fill="none" xmlns="http://www.w3.org/2000/svg">
<circle cx="449.5" cy="449.5" r="432.5" fill="white" stroke="#FCB9B1" stroke-width="34"/>
<g filter="url(#filter0_d_1_387)">
<path d="M165.579 418.015C165.577 429.648 166.234 441.269 167.545 452.821C158.969 455.263 150.726 458.81 143.027 463.386C93.6125 492.706 77.2817 556.615 106.488 606.137L117.686 599.533L106.488 606.137C128.239 643.018 169.115 661.538 208.983 656.52C215.007 708.311 258.91 748.554 312.243 748.554C336.076 748.554 358.02 740.497 375.535 726.991C392.087 762.499 428.003 787.139 469.736 787.139C491.932 787.139 516.945 781.738 536.863 770.428C555.625 759.775 571.542 742.714 573.414 718.855L767.425 472.494L769.683 469.626L770.119 466.002L757.212 464.451C770.119 466.002 770.119 466.002 770.119 466.001L770.119 465.999L770.12 465.993L770.122 465.974L770.131 465.901L770.163 465.628L770.204 465.28C770.227 465.089 770.253 464.862 770.283 464.601C770.386 463.713 770.533 462.432 770.708 460.848C771.058 457.683 771.525 453.294 771.993 448.397C772.912 438.772 773.892 426.607 773.892 418.017C773.892 249.596 637.754 113 469.736 113C301.718 113 165.579 249.594 165.579 418.015ZM165.579 418.015L178.579 418.017M165.579 418.015L178.579 418.017M178.579 418.017C178.577 433.056 179.723 448.073 182.01 462.936L178.579 418.017Z" fill="#833ABB" stroke="#FCB9B1" stroke-width="26"/>
<path d="M766.716 360.267L767.933 357.162L767.504 353.856C761.003 303.649 728.063 243.638 676.773 196.334C625.212 148.781 553.972 113 469.736 113C301.552 113 165.579 255.556 165.579 418.017C165.579 430.146 166.321 439.84 167.937 447.305C169.441 454.252 172.231 461.885 178.54 466.591C186.051 472.194 194.309 470.838 199.826 468.529C205.037 466.348 209.879 462.588 213.851 459.146C217.643 455.86 221.58 452.014 225.247 448.431C225.569 448.117 225.888 447.805 226.205 447.496C230.29 443.509 234.091 439.842 237.743 436.776C241.478 433.64 244.376 431.723 246.514 430.794C247.209 430.491 247.658 430.362 247.91 430.309C256.415 433.786 261.944 440.712 265.958 451.852C270.204 463.632 272.047 478.13 274.127 494.486L274.137 494.561L274.147 494.639C276.122 510.177 278.345 527.66 284.081 542.26C290.076 557.519 300.535 571.197 319.445 576.734C328.84 579.485 337.598 580.451 345.625 578.99C353.949 577.474 360.653 573.495 365.822 567.845C375.286 557.502 379.032 541.974 381.723 528.702C382.488 524.928 383.189 521.194 383.883 517.5C385.886 506.834 387.827 496.495 391.065 486.458C395.306 473.314 401.229 462.715 410.638 455.477C417.138 450.476 423.083 443.582 428.208 437.391C429.458 435.882 430.667 434.405 431.847 432.963C435.846 428.076 439.519 423.588 443.351 419.593C448.358 414.375 452.278 411.507 455.369 410.367C457.577 409.553 459.658 409.422 462.948 411.436C468.604 414.899 474.347 419.519 480.775 424.857C481.462 425.427 482.158 426.007 482.862 426.594C488.486 431.279 494.654 436.418 500.962 440.767C515.251 450.619 533.984 458.959 555.411 448.916C573.083 440.633 587.294 427.685 599.272 416.771C602.566 413.77 605.691 410.922 608.673 408.368C623.144 395.972 636.093 388.152 654.843 389.243C662.584 389.693 668.278 393.909 677.409 400.671C678.186 401.246 678.987 401.84 679.816 402.451C689.26 409.407 703.371 419.058 722.577 412.688C730.647 410.012 737.295 404.753 742.475 399.4C747.732 393.968 752.138 387.748 755.617 382.107C759.121 376.423 761.864 371.031 763.728 367.075C764.665 365.088 765.392 363.436 765.893 362.26C766.144 361.671 766.34 361.2 766.477 360.862C766.546 360.693 766.601 360.558 766.641 360.458L766.69 360.335L766.706 360.294L766.712 360.279L766.714 360.272C766.715 360.27 766.716 360.267 754.612 355.525L766.716 360.267ZM248.162 430.274C248.162 430.276 248.137 430.279 248.092 430.277C248.141 430.272 248.163 430.272 248.162 430.274Z" fill="#5DB4EA" stroke="#FCB9B1" stroke-width="26"/>
<path d="M574 718L769 474C724 440.5 692.348 441.217 662.847 447.57C637.37 453.058 596.899 481.783 602.766 527.968C595.017 526.303 586.917 525.67 578.617 526.263C531.272 529.643 495.639 570.879 499.03 618.364C501.92 658.83 531.314 694.864 574 718Z" fill="white" stroke="#FCB9B1" stroke-width="26" stroke-linecap="round" stroke-linejoin="round"/>
<path d="M382.641 259.187L435.493 302.004M474.295 184.258L446.866 229.082M576.655 194.962L607.429 223.73M529.155 263.87L551.901 302.004M348.521 194.962L393.345 202.321M653.591 287.286L675 329.434M258.204 329.434L240.141 376.265M302.359 253.166L321.76 306.018M529.155 354.856L457.57 345.49M365.246 392.321L321.76 433.8" stroke="white" stroke-width="17" stroke-linecap="round"/>
</g>
<mask id="mask0_1_387" style="mask-type:alpha" maskUnits="userSpaceOnUse" x="541" y="473" width="176" height="203">
<path d="M581.834 672.909C581.063 673.922 580.117 674.621 578.998 675.007C577.903 675.36 576.845 675.123 575.825 674.294C574.045 672.836 572.12 671.163 570.048 669.276C568 667.356 565.946 665.378 563.883 663.343C561.787 661.283 559.79 659.298 557.891 657.387C556.016 655.444 554.345 653.707 552.878 652.177C552.365 652.716 551.881 653.25 551.425 653.78C550.97 654.311 550.568 654.805 550.22 655.262C549.175 656.634 548.361 657.975 547.776 659.284C547.217 660.561 546.978 661.824 547.059 663.073C545.001 661.506 543.46 660.074 542.434 658.778C541.401 657.423 540.939 656.065 541.047 654.703C541.181 653.308 541.931 651.712 543.299 649.915C544.294 648.609 545.515 647.242 546.963 645.816C548.402 644.331 549.871 642.844 551.368 641.352C552.865 639.86 554.161 638.395 555.255 636.958C556.151 635.782 556.832 634.65 557.3 633.561C557.793 632.439 557.932 631.41 557.717 630.472C558.493 629.928 559.422 629.758 560.504 629.963C561.554 630.143 562.536 630.581 563.451 631.278C564.267 631.899 564.931 632.688 565.441 633.645C565.919 634.576 566.121 635.633 566.046 636.815C565.939 637.972 565.376 639.22 564.356 640.559C563.884 641.18 563.25 641.91 562.456 642.75C561.654 643.533 560.802 644.381 559.9 645.294C561.586 647.145 563.652 649.312 566.098 651.793C568.535 654.217 571.223 656.753 574.16 659.402C577.121 662.019 580.194 664.591 583.379 667.119C583.551 668.179 583.474 669.23 583.146 670.27C582.843 671.278 582.406 672.158 581.834 672.909Z" fill="white"/>
<path d="M595.659 654.752C594.764 655.928 593.494 656.612 591.85 656.806C590.174 656.974 588.454 656.387 586.69 655.044C585.84 654.397 584.951 653.565 584.023 652.549C583.094 651.532 582.174 650.47 581.262 649.363C580.318 648.231 579.43 647.194 578.599 646.252C577.736 645.285 576.978 644.553 576.324 644.055C575.638 643.533 575 643.253 574.409 643.216C573.81 643.121 573.362 643.27 573.063 643.662C572.59 644.283 572.53 645.243 572.882 646.543L572.462 646.688C571.915 646.322 571.381 645.735 570.861 644.927C570.342 644.118 569.967 643.188 569.736 642.135C569.473 641.057 569.436 639.92 569.625 638.722C569.84 637.492 570.394 636.289 571.29 635.113C572.608 633.382 574.072 632.51 575.682 632.497C577.259 632.459 578.749 632.975 580.154 634.044C580.383 634.218 580.615 634.421 580.852 634.653C581.08 634.827 581.297 635.017 581.5 635.224C580.272 632.431 579.588 629.975 579.448 627.856C579.299 625.679 579.648 624.035 580.493 622.924C581.289 621.879 582.282 621.422 583.472 621.554C584.662 621.686 585.828 622.187 586.971 623.057C588.017 623.853 588.917 624.874 589.671 626.119C590.451 627.332 590.889 628.62 590.986 629.984C591.075 631.291 590.668 632.503 589.765 633.621L589.517 633.743C588.643 633.129 587.762 632.897 586.874 633.046C585.986 633.196 585.294 633.597 584.796 634.25C584.125 635.132 583.931 636.301 584.216 637.757C584.526 639.18 585.514 640.525 587.18 641.794C588.193 642.565 589.374 643.284 590.724 643.95C592.074 644.617 593.158 645.261 593.974 645.883C594.954 646.629 595.678 647.542 596.147 648.621C596.615 649.7 596.821 650.786 596.764 651.878C596.674 652.944 596.306 653.902 595.659 654.752Z" fill="white"/>
<path d="M613.817 630.904C612.698 632.374 611.148 633.155 609.169 633.247C607.214 633.307 605.224 632.566 603.199 631.024C602.088 630.178 600.995 629.14 599.92 627.908C598.845 626.677 597.836 625.495 596.891 624.363C596.216 623.488 595.569 622.712 594.95 622.034C594.323 621.298 593.781 620.756 593.323 620.408C592.735 619.961 592.211 619.768 591.751 619.83C591.315 619.86 590.973 620.038 590.725 620.365C590.476 620.691 590.341 621.105 590.321 621.606C590.269 622.082 590.38 622.579 590.655 623.099L590.21 623.379C588.871 622.359 587.976 621.162 587.526 619.787C587.076 618.413 586.992 617.032 587.273 615.647C587.554 614.261 588.093 613.045 588.889 612C589.535 611.151 590.337 610.471 591.293 609.961C592.217 609.425 593.224 609.186 594.316 609.244C595.433 609.268 596.53 609.691 597.608 610.512C598.261 611.009 598.971 611.704 599.736 612.596C600.526 613.456 601.324 614.373 602.13 615.348C602.969 616.348 603.824 617.36 604.695 618.385C605.558 619.352 606.382 620.134 607.166 620.731C607.884 621.278 608.559 621.611 609.191 621.731C609.822 621.85 610.312 621.681 610.66 621.224C611.307 620.375 611.244 618.831 610.472 616.591C609.725 614.32 608.277 611.85 606.129 609.182C605.706 608.653 605.237 608.116 604.724 607.57C604.211 607.024 603.644 606.515 603.023 606.043C602.533 605.67 602.018 605.329 601.478 605.021C600.906 604.689 600.309 604.389 599.687 604.122L599.344 603.86C598.86 602.666 598.7 601.487 598.864 600.322C599.054 599.124 599.472 598.101 600.118 597.252C600.989 596.108 602.164 595.378 603.645 595.06C605.125 594.742 606.617 595.156 608.119 596.3C609.001 596.971 609.906 597.918 610.833 599.14C611.728 600.337 612.647 601.604 613.589 602.942C614.5 604.254 615.418 605.521 616.345 606.743C617.273 607.965 618.194 608.924 619.108 609.621C620.448 610.641 621.478 610.677 622.199 609.73C622.398 609.468 622.569 609.108 622.712 608.649C622.847 608.133 622.811 607.537 622.602 606.863L622.961 606.594C624.137 607.49 624.934 608.612 625.351 609.962C625.76 611.254 625.837 612.577 625.581 613.93C625.324 615.283 624.798 616.482 624.002 617.527C622.983 618.867 621.572 619.702 619.772 620.034C617.996 620.333 615.997 619.637 613.776 617.946L613.678 617.871C614.945 620.951 615.521 623.583 615.407 625.767C615.292 627.95 614.762 629.663 613.817 630.904Z" fill="white"/>
<path d="M635.078 602.981C634.407 603.863 633.535 604.567 632.464 605.093C631.385 605.562 630.156 605.684 628.778 605.46C627.4 605.237 625.944 604.541 624.408 603.372C623.036 602.327 621.573 600.929 620.017 599.176C618.453 597.367 616.85 595.475 615.205 593.5C613.586 591.493 611.965 589.588 610.344 587.786C608.723 585.984 607.165 584.54 605.671 583.454C604.266 582.384 603.145 581.789 602.309 581.668L602.124 581.605C601.352 580.45 601.021 579.191 601.129 577.828C601.238 576.466 601.677 575.279 602.449 574.266C603.319 573.123 604.531 572.446 606.085 572.235C607.63 571.967 609.416 572.604 611.441 574.147C612.519 574.967 613.71 576.08 615.014 577.486C616.285 578.867 617.633 580.383 619.058 582.036C620.45 583.664 621.814 585.295 623.148 586.931C624.508 588.534 625.774 589.988 626.947 591.294C628.12 592.6 629.148 593.589 630.03 594.261C630.944 594.957 631.681 595.311 632.239 595.324C632.765 595.311 633.152 595.142 633.401 594.815C633.674 594.456 633.805 594.013 633.792 593.487C633.747 592.937 633.647 592.526 633.493 592.253L633.89 591.936C635.041 592.864 635.825 594.003 636.242 595.353C636.684 596.67 636.794 598.017 636.57 599.395C636.371 600.741 635.874 601.936 635.078 602.981Z" fill="white"/>
<path d="M655.676 576.031C654.806 577.174 653.671 577.885 652.273 578.162C650.875 578.439 649.327 577.931 647.628 576.638C647.465 576.513 647.302 576.389 647.138 576.264C646.975 576.14 646.824 575.999 646.686 575.842C647.9 578.315 648.507 580.532 648.51 582.495C648.504 584.4 648.029 585.973 647.083 587.214C646.213 588.358 645 589.137 643.445 589.553C641.857 589.944 640.043 589.852 638.003 589.279C635.962 588.706 633.831 587.574 631.61 585.882C629.323 584.141 627.518 582.276 626.194 580.288C624.895 578.267 624.023 576.261 623.577 574.27C623.132 572.28 623.071 570.428 623.396 568.714C623.688 566.975 624.281 565.518 625.177 564.342C626.172 563.035 627.475 562.17 629.088 561.746C630.668 561.298 632.473 561.537 634.502 562.463C634.022 561.942 633.565 561.492 633.133 561.111C632.725 560.697 632.44 560.428 632.276 560.304C631.419 559.6 631.102 558.661 631.324 557.489C631.571 556.283 632.092 555.158 632.888 554.113C633.584 553.198 634.423 552.469 635.404 551.926C636.385 551.383 637.413 551.288 638.486 551.641L638.854 551.766C639.438 552.83 640.201 554.03 641.144 555.367C642.087 556.705 643.12 558.059 644.243 559.43C645.334 560.777 646.458 562.045 647.615 563.236C648.74 564.402 649.792 565.358 650.772 566.104C651.85 566.925 652.688 567.383 653.287 567.478C653.853 567.547 654.261 567.419 654.509 567.092C654.932 566.537 654.926 565.732 654.49 564.678L654.984 564.435C656.095 565.281 656.834 566.411 657.202 567.826C657.569 569.241 657.62 570.699 657.355 572.2C657.056 573.676 656.497 574.953 655.676 576.031ZM643.372 579.28C644.019 578.43 643.976 576.927 643.245 574.77C642.505 572.556 641.001 569.991 638.731 567.076C638.487 566.787 638.259 566.51 638.047 566.246C637.803 565.957 637.562 565.696 637.326 565.465C635.719 565.067 634.447 564.976 633.51 565.191C632.564 565.348 631.88 565.704 631.457 566.26C630.835 567.076 630.692 568.18 631.027 569.57C631.354 570.902 631.996 572.295 632.955 573.747C633.938 575.167 635.083 576.374 636.39 577.369C638.186 578.737 639.675 579.561 640.855 579.84C642.06 580.087 642.899 579.9 643.372 579.28Z" fill="white"/>
<path d="M668.259 559.404C667.363 560.58 666.109 561.38 664.497 561.803C662.909 562.194 661.083 562.119 659.017 561.579C656.977 561.006 654.846 559.873 652.624 558.182C650.338 556.441 648.545 554.56 647.246 552.538C645.947 550.517 645.074 548.511 644.629 546.521C644.176 544.473 644.095 542.579 644.387 540.841C644.704 539.069 645.322 537.579 646.242 536.371C647.262 535.031 648.595 534.162 650.24 533.764C651.852 533.34 653.69 533.604 655.752 534.555C654.343 533.017 652.978 531.591 651.657 530.276C650.329 528.903 649.093 527.781 647.949 526.911C646.447 525.767 645.203 525.129 644.219 524.999L643.925 524.775C643.648 523.377 643.649 522.088 643.928 520.908C644.2 519.67 644.647 518.642 645.269 517.826C646.089 516.748 647.129 516.094 648.387 515.865C649.612 515.611 650.846 515.957 652.087 516.902C652.773 517.424 653.699 518.31 654.864 519.558C656.029 520.807 657.353 522.253 658.835 523.898C660.285 525.518 661.788 527.204 663.344 528.957C664.892 530.651 666.411 532.247 667.903 533.744C669.363 535.217 670.696 536.413 671.905 537.333C672.918 538.104 673.809 538.628 674.579 538.905C675.341 539.124 675.909 538.988 676.282 538.498C676.555 538.139 676.714 537.692 676.759 537.159C676.797 536.568 676.702 536.083 676.474 535.703L676.981 535.547C678.059 536.368 678.794 537.469 679.186 538.852C679.546 540.209 679.605 541.622 679.365 543.09C679.124 544.558 678.581 545.848 677.735 546.958C676.815 548.167 675.754 548.882 674.554 549.103C673.346 549.267 672.107 549.098 670.838 548.596C669.569 548.094 668.366 547.436 667.231 546.623C668.812 549.427 669.635 551.937 669.701 554.155C669.759 556.315 669.279 558.065 668.259 559.404ZM664.536 551.383C665.182 550.534 665.136 549.002 664.397 546.788C663.657 544.573 662.116 541.955 659.773 538.932L658.478 537.482C656.871 537.084 655.587 537.009 654.624 537.257C653.654 537.447 652.957 537.819 652.534 538.375C651.913 539.191 651.785 540.307 652.153 541.722C652.488 543.113 653.183 544.571 654.24 546.098C655.288 547.567 656.58 548.886 658.116 550.055C659.585 551.175 660.907 551.845 662.079 552.067C663.219 552.264 664.038 552.036 664.536 551.383Z" fill="white"/>
<path d="M692.846 527.418C690.98 529.868 688.948 531.52 686.75 532.375C684.551 533.229 682.353 533.439 680.155 533.004C677.95 532.512 675.933 531.569 674.103 530.176C672.372 528.858 670.877 527.23 669.618 525.291C668.384 523.319 667.525 521.194 667.041 518.916C666.549 516.58 666.55 514.207 667.043 511.797C667.505 509.361 668.606 507 670.347 504.714C672.212 502.264 674.248 500.64 676.455 499.843C678.653 498.989 680.855 498.808 683.061 499.3C685.291 499.76 687.337 500.698 689.199 502.116C690.898 503.409 692.376 505.026 693.635 506.964C694.861 508.878 695.72 511.003 696.212 513.339C696.697 515.617 696.692 517.962 696.198 520.372C695.704 522.783 694.587 525.131 692.846 527.418ZM689.688 522.924C690.36 522.042 690.462 520.959 689.995 519.674C689.528 518.39 688.704 517.066 687.524 515.702C686.31 514.314 684.969 513.06 683.499 511.941C682.192 510.946 680.867 510.144 679.525 509.535C678.175 508.868 676.954 508.506 675.862 508.449C674.738 508.367 673.877 508.718 673.28 509.502C672.634 510.351 672.531 511.434 672.974 512.751C673.44 514.036 674.264 515.36 675.445 516.723C676.626 518.087 677.968 519.34 679.47 520.485C680.777 521.48 682.105 522.31 683.455 522.977C684.798 523.586 686.031 523.932 687.155 524.014C688.247 524.071 689.091 523.708 689.688 522.924Z" fill="white"/>
<path d="M711.957 502.522C710.415 504.547 708.856 506.018 707.281 506.935C705.706 507.851 704.245 508.313 702.898 508.319C701.519 508.301 700.388 507.956 699.506 507.285C698.265 506.34 697.594 504.951 697.492 503.119C697.358 501.262 698.012 499.387 699.454 497.492C701.12 498.76 702.621 499.568 703.957 499.914C705.261 500.236 706.373 500.232 707.295 499.902C708.242 499.539 708.952 499.047 709.425 498.427C709.997 497.675 710.257 496.893 710.206 496.08C710.146 495.209 709.79 494.525 709.136 494.027C708.222 493.331 707.061 493.195 705.654 493.62C704.246 494.045 702.546 494.685 700.553 495.541C699.523 495.945 698.379 496.363 697.119 496.797C695.827 497.207 694.52 497.399 693.198 497.373C691.843 497.322 690.562 496.836 689.353 495.916C688.079 494.946 687.226 493.728 686.793 492.263C686.385 490.766 686.315 489.164 686.582 487.458C686.816 485.727 687.305 484.035 688.047 482.382C688.758 480.703 689.623 479.195 690.642 477.855C692.558 475.34 694.506 473.831 696.489 473.328C698.472 472.825 700.035 473.009 701.178 473.879C702.158 474.626 702.667 475.787 702.705 477.364C702.743 478.941 701.99 480.742 700.448 482.767C698.807 481.466 697.337 480.889 696.039 481.036C694.708 481.157 693.731 481.626 693.109 482.443C692.662 483.031 692.468 483.658 692.529 484.323C692.59 484.989 692.963 485.583 693.649 486.105C694.433 486.702 695.306 486.98 696.267 486.937C697.22 486.837 698.212 486.586 699.241 486.183C700.263 485.722 701.28 485.233 702.294 484.715C703.662 484.002 705.014 483.38 706.348 482.847C707.682 482.315 708.961 482.025 710.185 481.976C711.409 481.927 712.56 482.314 713.638 483.134C715.108 484.254 716.019 485.903 716.373 488.081C716.719 490.202 716.525 492.558 715.792 495.147C715.026 497.712 713.748 500.17 711.957 502.522Z" fill="white"/>
</mask>
<g mask="url(#mask0_1_387)">
<path d="M601.438 564.023L636 611.817L581.212 681.313L532.952 656.861L601.438 564.023Z" fill="#5DB4EA"/>
<path d="M683.939 459.508L726.059 487.208L633.889 608.686L604.63 568.425L683.939 459.508Z" fill="#FCB9B1"/>
</g>
<defs>
<filter id="filter0_d_1_387" x="74.9971" y="100" width="715.895" height="708.139" filterUnits="userSpaceOnUse" color-interpolation-filters="sRGB">
<feFlood flood-opacity="0" result="BackgroundImageFix"/>
<feColorMatrix in="SourceAlpha" type="matrix" values="0 0 0 0 0 0 0 0 0 0 0 0 0 0 0 0 0 0 127 0" result="hardAlpha"/>
<feOffset dy="4"/>
<feGaussianBlur stdDeviation="2"/>
<feComposite in2="hardAlpha" operator="out"/>
<feColorMatrix type="matrix" values="0 0 0 0 0 0 0 0 0 0 0 0 0 0 0 0 0 0 0.25 0"/>
<feBlend mode="normal" in2="BackgroundImageFix" result="effect1_dropShadow_1_387"/>
<feBlend mode="normal" in="SourceGraphic" in2="effect1_dropShadow_1_387" result="shape"/>
</filter>
</defs>
</svg>
